<svg id="landing" xmlns="http://www.w3.org/2000/svg" viewBox="0 0 432.95 84.9"><defs><style>.cls-1{fill:#faf9fa;stroke:#faf9fa;stroke-miterlimit:10;stroke-width:0.5px;}</style></defs><title>Ford Boyard Spring Colors RGB копия</title><path class="cls-1" d="M102.73,176v-82h22.15q24.41,0,24.41,21.29,0,15.48-17.53,19.57,6.35,2.25,9.14,6.77,3.43,6.13,5.81,19.68l1.29,5.91q1.29,6.88,1.83,8.82H139.29q-1.08-5.91-3.12-18.82-3.22-18.37-15.16-18.81H112.3V176Zm9.57-46.34h8.93q18.27,0,18.27-14.41,0-12.58-16.13-12.58H112.3Z" transform="translate(-102.48 -92.06)"/><path class="cls-1" d="M181.44,92.42q23.43,0,23.44,42.14T181,176.71q-23.87,0-23.87-41.82Q157.14,92.41,181.44,92.42Zm-.65,9.14q-13.86,0-13.87,33.11,0,32.91,14.09,32.9T195.09,135Q195.09,101.56,180.79,101.56Z" transform="translate(-102.48 -92.06)"/><path class="cls-1" d="M212.83,175.21V93.92H231q15.06,0,20.33,5a19.34,19.34,0,0,1,6.55,14.84q0,14.19-13.54,19.13,15.58,4.31,15.59,20.54a21.58,21.58,0,0,1-6.56,16q-6,5.81-18.6,5.81Zm9.57-46.56h8.93q17,0,17-14.19,0-6.78-4.3-9.57-3.33-2.15-11.82-2.15H222.4Zm0,37.74h10.65q17.31,0,17.31-14,0-14.94-18.39-14.94H222.4Z" transform="translate(-102.48 -92.06)"/><path class="cls-1" d="M291.54,92.42q23.43,0,23.44,42.14t-23.87,42.15q-23.87,0-23.87-41.82Q267.24,92.41,291.54,92.42Zm-.65,9.14q-13.86,0-13.87,33.11,0,32.91,14.09,32.9T305.19,135Q305.19,101.56,290.89,101.56Z" transform="translate(-102.48 -92.06)"/><path class="cls-1" d="M368.63,116.18H358.42q-1.62-14.73-10.65-14.73-15.7,0-15.69,34.19,0,31.94,15.05,31.93,9.78,0,12.79-16.45h10.22q-4.41,25.59-22.15,25.59-25.71,0-25.7-41.72,0-18.92,6.24-30.75t19.35-11.93Q366,92.31,368.63,116.18Z" transform="translate(-102.48 -92.06)"/><path class="cls-1" d="M401.64,92.42q23.43,0,23.44,42.14t-23.87,42.15q-23.86,0-23.87-41.82Q377.34,92.41,401.64,92.42Zm-.65,9.14q-13.86,0-13.87,33.11,0,32.91,14.09,32.9T415.29,135Q415.29,101.56,401,101.56Z" transform="translate(-102.48 -92.06)"/><path class="cls-1" d="M433,175.21V93.92h16q31.08,0,31.08,40.64,0,20-8.49,31.51-6.67,9.13-21.08,9.14Zm9.56-9.14h7.31q10.75,0,15.6-7.53t4.83-24.3q0-31.17-20.64-31.18h-7.1Z" transform="translate(-102.48 -92.06)"/><path class="cls-1" d="M488.09,175.21V93.92h47.09v9.14H497.65v26h31.51v9.14H497.65v27.85h37.53v9.14Z" transform="translate(-102.48 -92.06)"/></svg>